# xmcd
#
# Track frame offsets:
#	150
#	18533
#	37829
#	53239
#	78691
#	94721
#	112938
#	139581
#	164617
#	184987
#	197848
#	222974
#	241107
#
# Disc length: 3449 seconds
#
# Revision: 0
# Processed by: cddbd v1.5.2PL0 Copyright (c) Steve Scherf et al.
# Submitted via: MusicManager 7.3.0.0 
#
DISCID=ae0d770d
DTITLE=Plant,Robert/Alison Krauss - Rasing Sand
DYEAR=1900
DGENRE=country
TTITLE0=Rich woman
TTITLE1=Killing the blues
TTITLE2=Sister Rosetta goes before us
TTITLE3=Polly comes home
TTITLE4=Gone gone gone(done moved on)
TTITLE5=Through the mornings, through the night
TTITLE6=Please read the letter
TTITLE7=Trampled rose
TTITLE8=Fortune teller
TTITLE9=Stick with me baby
TTITLE10=Nothin'
TTITLE11=Let your loss be your lesson
TTITLE12=Your long journey
EXTD=
EXTT0=
EXTT1=
EXTT2=
EXTT3=
EXTT4=
EXTT5=
EXTT6=
EXTT7=
EXTT8=
EXTT9=
EXTT10=
EXTT11=
EXTT12=
PLAYORDER=
